<svg width="9" height="10" viewBox="0 0 9 10" fill="none" xmlns="http://www.w3.org/2000/svg">
<path fill-rule="evenodd" clip-rule="evenodd" d="M4.32202 0.743204C3.48458 0.743204 2.8057 1.42208 2.8057 2.25951C2.8057 3.09694 3.48458 3.77582 4.32202 3.77582C5.15946 3.77582 5.83833 3.09694 5.83833 2.25951C5.83833 1.42208 5.15946 0.743204 4.32202 0.743204ZM2.0625 2.25951C2.0625 1.01162 3.07412 0 4.32202 0C5.56991 0 6.58154 1.01162 6.58154 2.25951C6.58154 3.50741 5.56991 4.51902 4.32202 4.51902C3.07412 4.51902 2.0625 3.50741 2.0625 2.25951Z" fill="#6D758F"/>
<path fill-rule="evenodd" clip-rule="evenodd" d="M1.48753 6.04841C2.16661 5.64306 3.08539 5.37305 4.32207 5.37305C5.55876 5.37305 6.47753 5.64306 7.15662 6.04841C7.83599 6.45394 8.25375 6.98199 8.50828 7.46389L8.5083 7.46391C8.73606 7.89521 8.66153 8.3427 8.40301 8.66733C8.15435 8.97958 7.74962 9.16595 7.31515 9.16595H1.329C0.89452 9.16595 0.489782 8.97958 0.241126 8.66733C-0.0173928 8.34269 -0.0919057 7.89519 0.135881 7.4639C0.390391 6.98199 0.808157 6.45394 1.48753 6.04841ZM1.86846 6.68657C1.32372 7.01173 0.994227 7.43008 0.793063 7.81098L0.793061 7.81098C0.711075 7.96621 0.737156 8.09717 0.82251 8.20435C0.917726 8.32392 1.10014 8.42275 1.329 8.42275H7.31515C7.544 8.42275 7.72641 8.32393 7.82163 8.20435C7.90699 8.09717 7.93307 7.96621 7.85111 7.81099C7.64993 7.43008 7.32043 7.01173 6.77569 6.68657C6.23066 6.36123 5.44847 6.11625 4.32207 6.11625C3.19568 6.11625 2.41349 6.36123 1.86846 6.68657Z" fill="#6D758F"/>
</svg>
