<svg width="9" height="10" viewBox="0 0 9 10" fill="none" xmlns="http://www.w3.org/2000/svg">
<path fill-rule="evenodd" clip-rule="evenodd" d="M4.32202 0.743204C3.48458 0.743204 2.8057 1.42208 2.8057 2.25951C2.8057 3.09694 3.48458 3.77582 4.32202 3.77582C5.15946 3.77582 5.83833 3.09694 5.83833 2.25951C5.83833 1.42208 5.15946 0.743204 4.32202 0.743204ZM2.0625 2.25951C2.0625 1.01162 3.07412 0 4.32202 0C5.56991 0 6.58154 1.01162 6.58154 2.25951C6.58154 3.50741 5.56991 4.51902 4.32202 4.51902C3.07412 4.51902 2.0625 3.50741 2.0625 2.25951Z" fill="#6D758F"/>
<path fill-rule="evenodd" clip-rule="evenodd" d="M1.48753 6.04872C2.16661 5.64336 3.08539 5.37335 4.32207 5.37335C5.55876 5.37335 6.47753 5.64336 7.15662 6.04872C7.83599 6.45425 8.25375 6.98229 8.50828 7.46419L8.5083 7.46422C8.73606 7.89551 8.66153 8.343 8.40301 8.66763C8.15435 8.97988 7.74962 9.16625 7.31515 9.16625H1.329C0.89452 9.16625 0.489782 8.97989 0.241126 8.66763C-0.0173928 8.34299 -0.0919057 7.8955 0.135881 7.4642C0.390391 6.9823 0.808157 6.45425 1.48753 6.04872ZM1.86846 6.68688C1.32372 7.01204 0.994227 7.43038 0.793063 7.81128L0.793061 7.81129C0.711075 7.96652 0.737156 8.09747 0.82251 8.20466C0.917726 8.32423 1.10014 8.42305 1.329 8.42305H7.31515C7.544 8.42305 7.72641 8.32423 7.82163 8.20466C7.90699 8.09747 7.93307 7.96651 7.85111 7.81129C7.64993 7.43039 7.32043 7.01204 6.77569 6.68688C6.23066 6.36154 5.44847 6.11656 4.32207 6.11656C3.19568 6.11656 2.41349 6.36154 1.86846 6.68688Z" fill="#6D758F"/>
</svg>
