<svg width="18" height="20" viewBox="0 0 18 20" fill="none" xmlns="http://www.w3.org/2000/svg">
<path d="M5.48271 3.74414H4.01719C2.72218 3.74414 1.67236 4.79396 1.67236 6.08897V16.0545C1.67236 17.3495 2.72218 18.3993 4.01719 18.3993H13.9827C15.2778 18.3993 16.3275 17.3495 16.3275 16.0545V6.08897C16.3275 4.79396 15.2778 3.74414 13.9827 3.74414H12.5172" stroke="#68BB6C" stroke-width="1.5" stroke-linecap="round" stroke-linejoin="round"/>
<path d="M11.345 5.50189H6.65532C6.00782 5.50189 5.48291 4.97697 5.48291 4.32947V2.57085C5.48291 1.92335 6.00782 1.39844 6.65532 1.39844H11.345C11.9925 1.39844 12.5174 1.92335 12.5174 2.57085V4.32947C12.5174 4.97697 11.9925 5.50189 11.345 5.50189Z" stroke="#68BB6C" stroke-width="1.5" stroke-linecap="round" stroke-linejoin="round"/>
<path d="M6.36182 10.1914H11.6377" stroke="#68BB6C" stroke-width="1.5" stroke-linecap="round" stroke-linejoin="round"/>
<path d="M6.36182 13.709H11.6377" stroke="#68BB6C" stroke-width="1.5" stroke-linecap="round" stroke-linejoin="round"/>
</svg>
