<svg width="20" height="20" viewBox="0 0 20 20" fill="none" xmlns="http://www.w3.org/2000/svg">
<path d="M2.52137 13.6766L3.81196 13.8788C4.76468 14.0279 5.44507 14.9005 5.3749 15.8836L5.27981 17.216C5.25212 17.6042 5.45891 17.9697 5.80141 18.1387L6.75597 18.609C7.09846 18.778 7.50744 18.7147 7.78719 18.4513L8.74634 17.5448C9.45354 16.8762 10.5447 16.8762 11.2527 17.5448L12.2119 18.4513C12.4916 18.7158 12.8997 18.778 13.2431 18.609L14.1995 18.1378C14.5411 17.9697 14.747 17.6052 14.7193 17.218L14.6241 15.8836C14.554 14.9005 15.2344 14.0279 16.1871 13.8788L17.4777 13.6766C17.8534 13.6181 18.1562 13.3301 18.2411 12.9504L18.4766 11.8947C18.5616 11.5151 18.411 11.1212 18.0972 10.9021L17.0198 10.1476C16.2249 9.59042 15.9821 8.50254 16.4622 7.64786L17.113 6.49008C17.3023 6.15294 17.271 5.73082 17.0337 5.42674L16.3736 4.57965C16.1363 4.27556 15.7412 4.14997 15.3775 4.26423L14.1294 4.6552C13.2071 4.94416 12.224 4.45971 11.8694 3.54274L11.3912 2.30279C11.2508 1.94017 10.9084 1.70219 10.5271 1.70313L9.46913 1.70596C9.08786 1.7069 8.74634 1.94678 8.60787 2.31036L8.14161 3.53613C7.79082 4.45877 6.80305 4.947 5.87803 4.65613L4.57821 4.24818C4.21355 4.13297 3.81658 4.25951 3.57933 4.56548L2.92387 5.41351C2.68662 5.72043 2.658 6.14351 2.85095 6.48063L3.51655 7.64125C4.00676 8.4968 3.76673 9.59511 2.96726 10.1552L1.90284 10.9012C1.58896 11.1212 1.43849 11.5151 1.52342 11.8937L1.75883 12.9495C1.84284 13.3301 2.14563 13.6181 2.52137 13.6766Z" stroke="white" stroke-width="1.5" stroke-linecap="round" stroke-linejoin="round"/>
<path d="M11.8652 8.33696C12.8951 9.36705 12.8951 11.0377 11.8652 12.0678C10.8351 13.0978 9.16441 13.0978 8.13433 12.0678C7.10431 11.0377 7.10431 9.36705 8.13433 8.33696C9.16441 7.30695 10.8351 7.30695 11.8652 8.33696Z" stroke="white" stroke-width="1.5" stroke-linecap="round" stroke-linejoin="round"/>
</svg>
