<svg width="20" height="20" viewBox="0 0 20 20" fill="none" xmlns="http://www.w3.org/2000/svg">
<path d="M1.5 2.87551C1.5 2.22803 2.0249 1.70312 2.67239 1.70312H6.77575C7.42324 1.70312 7.94814 2.22803 7.94814 2.87551V6.97888C7.94814 7.62637 7.42324 8.15127 6.77575 8.15127H2.67239C2.0249 8.15127 1.5 7.62637 1.5 6.97888V2.87551Z" stroke="#003C71" stroke-width="1.5" stroke-linecap="round" stroke-linejoin="round"/>
<path d="M1.5 13.4263C1.5 12.7788 2.0249 12.2539 2.67239 12.2539H6.77575C7.42324 12.2539 7.94814 12.7788 7.94814 13.4263V17.5297C7.94814 18.1772 7.42324 18.7021 6.77575 18.7021H2.67239C2.0249 18.7021 1.5 18.1772 1.5 17.5297V13.4263Z" stroke="#003C71" stroke-width="1.5" stroke-linecap="round" stroke-linejoin="round"/>
<path d="M12.0518 2.87551C12.0518 2.22803 12.5766 1.70312 13.2241 1.70312H17.3275C17.975 1.70312 18.4999 2.22803 18.4999 2.87551V6.97888C18.4999 7.62637 17.975 8.15127 17.3275 8.15127H13.2241C12.5766 8.15127 12.0518 7.62637 12.0518 6.97888V2.87551Z" stroke="#003C71" stroke-width="1.5" stroke-linecap="round" stroke-linejoin="round"/>
<path d="M12.0518 13.4263C12.0518 12.7788 12.5766 12.2539 13.2241 12.2539H17.3275C17.975 12.2539 18.4999 12.7788 18.4999 13.4263V17.5297C18.4999 18.1772 17.975 18.7021 17.3275 18.7021H13.2241C12.5766 18.7021 12.0518 18.1772 12.0518 17.5297V13.4263Z" stroke="#003C71" stroke-width="1.5" stroke-linecap="round" stroke-linejoin="round"/>
</svg>
