<svg width="20" height="19" viewBox="0 0 20 19" fill="none" xmlns="http://www.w3.org/2000/svg">
<path d="M4.98388 4.43942H18.5578L16.6253 12.6523C16.3744 13.7186 15.4229 14.4722 14.3274 14.4722H9.45677C8.38561 14.4722 7.44875 13.751 7.17466 12.7156L4.98388 4.43942ZM4.98388 4.43942L4.09863 0.898438H1.44287" stroke="#BD76C4" stroke-width="1.5" stroke-linecap="round" stroke-linejoin="round"/>
<path d="M7.64079 18.8978C8.29267 18.8978 8.82112 18.3693 8.82112 17.7174C8.82112 17.0656 8.29267 16.5371 7.64079 16.5371C6.9889 16.5371 6.46045 17.0656 6.46045 17.7174C6.46045 18.3693 6.9889 18.8978 7.64079 18.8978Z" fill="#BD76C4"/>
<path d="M15.9035 18.8978C16.5554 18.8978 17.0838 18.3693 17.0838 17.7174C17.0838 17.0656 16.5554 16.5371 15.9035 16.5371C15.2516 16.5371 14.7231 17.0656 14.7231 17.7174C14.7231 18.3693 15.2516 18.8978 15.9035 18.8978Z" fill="#BD76C4"/>
</svg>
